<svg width="19" height="22" viewBox="0 0 19 22" fill="none" xmlns="http://www.w3.org/2000/svg">
<path d="M18.0052 14.7436C17.3934 14.482 16.8722 14.0458 16.5068 13.4897C16.1414 12.9336 15.9479 12.2821 15.9505 11.6166C15.9585 11.0227 16.1175 10.4405 16.4128 9.92499C16.708 9.40951 17.1297 8.97773 17.638 8.67036C17.7531 8.59928 17.8525 8.50562 17.9303 8.39504C18.008 8.28446 18.0626 8.15925 18.0906 8.02699C18.1186 7.89472 18.1196 7.75814 18.0933 7.62552C18.067 7.49289 18.0142 7.36697 17.9378 7.25536C17.4809 6.59082 16.8851 6.03337 16.1918 5.62148C15.4984 5.20958 14.7239 4.95306 13.9217 4.86963C14.6683 3.68476 15.0072 2.28832 14.8866 0.893046C14.863 0.639689 14.7423 0.405299 14.5496 0.239061C14.357 0.0728238 14.1075 -0.012338 13.8534 0.00144634C12.1363 0.154484 10.5446 0.96434 9.41002 2.26219C8.69079 3.09557 8.18327 4.09018 7.93053 5.1616C7.40834 4.98488 6.86164 4.89129 6.31041 4.88426C5.28989 4.91318 4.29417 5.20529 3.41977 5.73227C2.54537 6.25925 1.82196 7.00322 1.31969 7.89205C-0.568012 11.1694 0.586777 16.0805 2.63169 19.0366C3.452 20.2211 4.68296 21.9995 6.53989 21.9995C6.57651 21.9995 6.61362 21.9995 6.65073 21.9975C7.2729 21.9622 7.88202 21.8045 8.44321 21.5336C8.89147 21.3064 9.38601 21.1854 9.88853 21.1801C10.3611 21.1858 10.8258 21.3015 11.2459 21.518C11.8598 21.8084 12.5288 21.9639 13.2079 21.974C15.1209 21.9379 16.2509 20.2875 17.076 19.0814C17.7271 18.1235 18.2366 17.0765 18.5887 15.973C18.6638 15.7323 18.6454 15.4721 18.5373 15.2443C18.4292 15.0165 18.2392 14.8377 18.0052 14.7436ZM10.9242 3.56787C11.4494 2.98036 12.1075 2.527 12.8436 2.24561C12.6826 3.03784 12.3262 3.77733 11.807 4.39697C11.4545 4.81984 11.0257 5.17267 10.5428 5.43705L10.5399 5.43805C10.5116 5.44977 10.4833 5.46051 10.4549 5.47223C10.2684 5.54547 10.0379 5.63629 9.86019 5.69488C10.0318 4.9082 10.3976 4.17699 10.9242 3.56787ZM15.4256 17.9526C14.6219 19.1265 13.9896 19.9595 13.1712 19.9741C12.7757 19.9729 12.3867 19.8725 12.0399 19.6821C11.3695 19.3555 10.6342 19.1839 9.88854 19.1801C9.11691 19.184 8.35577 19.3591 7.66002 19.6928C7.32175 19.8655 6.95271 19.9697 6.57408 19.9994H6.5443C5.7313 19.9994 4.8568 18.7368 4.27623 17.8979C2.82359 15.7983 1.48375 11.6147 3.05309 8.89008C3.38217 8.30048 3.85808 7.80597 4.43462 7.45453C5.01116 7.10309 5.66876 6.90665 6.34361 6.88428L6.3773 6.88328C6.94658 6.93166 7.50249 7.08217 8.01842 7.32762C8.14977 7.37937 8.27916 7.43113 8.40758 7.47898C8.44029 7.49266 8.47398 7.50535 8.50816 7.51609C8.86402 7.65922 9.24203 7.73951 9.62535 7.7534C10.1681 7.71026 10.6983 7.56759 11.1893 7.3325C11.8816 6.99652 12.6426 6.82634 13.412 6.83543C14.235 6.86763 15.0251 7.16728 15.6625 7.68895C15.1178 8.19081 14.6841 8.80108 14.3893 9.48054C14.0944 10.16 13.945 10.8936 13.9506 11.6343V11.6353C13.9449 12.5319 14.1668 13.4153 14.5955 14.2028C15.0242 14.9903 15.6457 15.6562 16.4017 16.1382C16.1385 16.7744 15.8114 17.3823 15.4256 17.9526Z" fill="black"/>
</svg>
