<svg width="25" height="24" viewBox="0 0 25 24" fill="none" xmlns="http://www.w3.org/2000/svg">
<path d="M23.1015 10.0044C23.0599 9.77382 22.9385 9.56516 22.7587 9.41487C22.5789 9.26459 22.352 9.18223 22.1177 9.18217H12.6992C12.5679 9.18214 12.4379 9.20798 12.3165 9.25822C12.1952 9.30847 12.0849 9.38212 11.9921 9.47499C11.8992 9.56785 11.8255 9.67811 11.7753 9.79945C11.725 9.92079 11.6992 10.0508 11.6992 10.1822V14.0503C11.6992 14.1817 11.725 14.3117 11.7753 14.4331C11.8255 14.5544 11.8992 14.6647 11.9921 14.7575C12.0849 14.8504 12.1952 14.924 12.3165 14.9743C12.4379 15.0245 12.5679 15.0504 12.6992 15.0503H16.6616C16.3793 15.5269 15.9923 15.933 15.5298 16.2378C14.6847 16.7737 13.6996 17.0469 12.6992 17.023C11.6617 17.0111 10.6543 16.6726 9.82022 16.0554C8.98613 15.4382 8.36776 14.5739 8.053 13.5852L8.05271 13.5835C7.70244 12.5569 7.70244 11.4431 8.05271 10.4165L8.05295 10.4149C8.36793 9.42639 8.98639 8.56228 9.82047 7.94532C10.6546 7.32836 11.6618 6.98992 12.6992 6.97807C13.2757 6.96484 13.849 7.06561 14.3864 7.27459C14.9237 7.48357 15.4145 7.79665 15.8305 8.19584C16.0195 8.3764 16.2716 8.47586 16.5329 8.47294C16.7943 8.47002 17.0441 8.36496 17.229 8.18022L20.0971 5.31205C20.1922 5.21716 20.2671 5.10408 20.3174 4.97957C20.3678 4.85507 20.3925 4.7217 20.3901 4.58742C20.3877 4.45315 20.3583 4.32073 20.3036 4.19808C20.2489 4.07543 20.1701 3.96507 20.0718 3.87358C18.0759 2.00229 15.435 0.973144 12.6992 1.00053C10.6592 0.994497 8.658 1.55855 6.92137 2.62907C5.18474 3.6996 3.78174 5.23402 2.87058 7.05931L2.86911 7.06108C2.09664 8.59284 1.69586 10.285 1.69924 12.0005C1.70167 13.7154 2.10216 15.4062 2.86916 16.94L2.87063 16.9418C3.78179 18.767 5.18478 20.3015 6.9214 21.372C8.65802 22.4425 10.6592 23.0066 12.6992 23.0005C15.3846 23.0685 17.9943 22.1072 19.9939 20.3135L19.9947 20.313L19.9954 20.3122L19.9956 20.3121L19.9957 20.3119C21.0795 19.2693 21.9333 18.0115 22.5023 16.6193C23.0712 15.2272 23.3427 13.7314 23.2993 12.2281C23.2998 11.4825 23.2336 10.7383 23.1015 10.0044ZM12.6992 3.00053C14.5703 2.98232 16.3972 3.56908 17.9077 4.67338L16.4541 6.12653C15.3518 5.36359 14.0397 4.96224 12.6992 4.97807C11.4755 4.98437 10.2755 5.31666 9.22277 5.94076C8.17007 6.56485 7.3027 7.4582 6.70993 8.52885L5.64072 7.70011L5.05572 7.24644C5.86049 5.94429 6.98571 4.87024 8.32388 4.12689C9.66205 3.38355 11.1685 2.99575 12.6992 3.00053ZM4.17868 14.9039C3.53936 13.0211 3.53936 10.98 4.17868 9.09721L5.96091 10.4791C5.73304 11.4803 5.73304 12.5199 5.96091 13.5211L4.17868 14.9039ZM12.6992 21.0005C11.1684 21.0053 9.66201 20.6175 8.32382 19.8741C6.98564 19.1307 5.86041 18.0566 5.05564 16.7544L5.43405 16.4609L6.70993 15.4712C7.30244 16.5422 8.16972 17.4358 9.22246 18.0601C10.2752 18.6844 11.4753 19.0168 12.6992 19.023C13.8449 19.0365 14.9775 18.7792 16.005 18.2722L17.6966 19.5855C16.2088 20.5441 14.4688 21.0368 12.6992 21.0005ZM19.2251 18.2398L19.0421 18.0978L17.6648 17.0285C18.387 16.2483 18.8724 15.2787 19.0644 14.233C19.0913 14.0887 19.086 13.9402 19.049 13.7981C19.012 13.656 18.9441 13.5238 18.8502 13.4109C18.7564 13.298 18.6388 13.2072 18.5058 13.1449C18.3729 13.0826 18.2279 13.0503 18.081 13.0504H13.6992V11.1822H21.2481C21.2823 11.5279 21.2993 11.8775 21.2993 12.2281C21.3578 14.4169 20.6209 16.5527 19.2251 18.2398H19.2251Z" fill="black"/>
</svg>
