<svg width="30" height="31" viewBox="0 0 30 31" fill="none" xmlns="http://www.w3.org/2000/svg">
<path d="M14.1125 19.6125C14.0587 19.6719 14.0087 19.7345 13.9625 19.8C13.9152 19.8697 13.8774 19.9453 13.85 20.025C13.814 20.0959 13.7887 20.1717 13.775 20.25C13.7689 20.3332 13.7689 20.4168 13.775 20.5C13.7708 20.664 13.805 20.8267 13.875 20.975C13.9311 21.1301 14.0207 21.271 14.1374 21.3876C14.254 21.5043 14.3949 21.5939 14.55 21.65C14.6996 21.7161 14.8614 21.7503 15.025 21.7503C15.1886 21.7503 15.3504 21.7161 15.5 21.65C15.6551 21.5939 15.796 21.5043 15.9126 21.3876C16.0293 21.271 16.1189 21.1301 16.175 20.975C16.2305 20.823 16.256 20.6617 16.25 20.5C16.251 20.3355 16.2194 20.1724 16.1572 20.0201C16.095 19.8678 16.0034 19.7293 15.8875 19.6125C15.7713 19.4953 15.6331 19.4023 15.4807 19.3389C15.3284 19.2754 15.165 19.2428 15 19.2428C14.835 19.2428 14.6716 19.2754 14.5193 19.3389C14.367 19.4023 14.2287 19.4953 14.1125 19.6125ZM15 3C12.5277 3 10.111 3.73311 8.05538 5.10663C5.99976 6.48015 4.39761 8.43238 3.45151 10.7165C2.50542 13.0005 2.25787 15.5139 2.74019 17.9386C3.2225 20.3634 4.41301 22.5907 6.16117 24.3388C7.90933 26.087 10.1366 27.2775 12.5614 27.7598C14.9861 28.2421 17.4995 27.9946 19.7836 27.0485C22.0676 26.1024 24.0199 24.5002 25.3934 22.4446C26.7669 20.389 27.5 17.9723 27.5 15.5C27.5 13.8585 27.1767 12.233 26.5485 10.7165C25.9203 9.19989 24.9996 7.8219 23.8388 6.66117C22.6781 5.50043 21.3001 4.57969 19.7836 3.95151C18.267 3.32332 16.6415 3 15 3ZM15 25.5C13.0222 25.5 11.0888 24.9135 9.4443 23.8147C7.79981 22.7159 6.51809 21.1541 5.76121 19.3268C5.00433 17.4996 4.8063 15.4889 5.19215 13.5491C5.57801 11.6093 6.53041 9.82746 7.92894 8.42893C9.32746 7.03041 11.1093 6.078 13.0491 5.69215C14.9889 5.3063 16.9996 5.50433 18.8268 6.2612C20.6541 7.01808 22.2159 8.29981 23.3147 9.9443C24.4135 11.5888 25 13.5222 25 15.5C25 18.1522 23.9464 20.6957 22.0711 22.5711C20.1957 24.4464 17.6522 25.5 15 25.5ZM15 9.25C14.3413 9.24958 13.6942 9.42265 13.1236 9.7518C12.5531 10.081 12.0793 10.5546 11.75 11.125C11.6596 11.2673 11.5988 11.4264 11.5715 11.5927C11.5441 11.7591 11.5507 11.9292 11.5908 12.093C11.6309 12.2567 11.7037 12.4107 11.8049 12.5455C11.906 12.6804 12.0334 12.7934 12.1793 12.8778C12.3253 12.9622 12.4868 13.0161 12.6542 13.0365C12.8215 13.0568 12.9913 13.0431 13.1532 12.9961C13.3151 12.9491 13.4658 12.8699 13.5963 12.7631C13.7268 12.6564 13.8344 12.5244 13.9125 12.375C14.0226 12.1842 14.1812 12.026 14.3722 11.9162C14.5632 11.8065 14.7797 11.7491 15 11.75C15.3315 11.75 15.6495 11.8817 15.8839 12.1161C16.1183 12.3505 16.25 12.6685 16.25 13C16.25 13.3315 16.1183 13.6495 15.8839 13.8839C15.6495 14.1183 15.3315 14.25 15 14.25C14.6685 14.25 14.3505 14.3817 14.1161 14.6161C13.8817 14.8505 13.75 15.1685 13.75 15.5V16.75C13.75 17.0815 13.8817 17.3995 14.1161 17.6339C14.3505 17.8683 14.6685 18 15 18C15.3315 18 15.6495 17.8683 15.8839 17.6339C16.1183 17.3995 16.25 17.0815 16.25 16.75V16.525C17.0767 16.225 17.7717 15.644 18.2135 14.8836C18.6552 14.1231 18.8157 13.2316 18.6668 12.3649C18.5178 11.4981 18.069 10.7113 17.3987 10.1419C16.7285 9.57252 15.8794 9.25682 15 9.25Z" fill="black"/>
</svg>
