<svg width="18" height="21" viewBox="0 0 18 21" fill="none" xmlns="http://www.w3.org/2000/svg">
<path d="M15.0009 2.47942C13.4096 0.888123 11.2513 -0.00585939 9.00091 -0.00585938C6.75047 -0.00585936 4.59221 0.888123 3.00091 2.47942C1.40961 4.07072 0.515625 6.22899 0.515625 8.47942C0.515625 10.7299 1.40961 12.8881 3.00091 14.4794L8.27091 19.7594C8.36387 19.8532 8.47447 19.9275 8.59633 19.9783C8.71819 20.0291 8.84889 20.0552 8.98091 20.0552C9.11292 20.0552 9.24362 20.0291 9.36548 19.9783C9.48734 19.9275 9.59794 19.8532 9.69091 19.7594L15.0009 14.4294C16.5856 12.8447 17.4758 10.6955 17.4758 8.45442C17.4758 6.21337 16.5856 4.0641 15.0009 2.47942ZM13.5709 12.9994L9.00091 17.5894L4.43091 12.9994C3.52805 12.0957 2.91338 10.9447 2.6646 9.69171C2.41582 8.43876 2.54409 7.14017 3.03321 5.9601C3.52233 4.78004 4.35032 3.77147 5.41254 3.0619C6.47475 2.35233 7.72349 1.9736 9.00091 1.9736C10.2783 1.9736 11.5271 2.35233 12.5893 3.0619C13.6515 3.77147 14.4795 4.78004 14.9686 5.9601C15.4577 7.14017 15.586 8.43876 15.3372 9.69171C15.0884 10.9447 14.4738 12.0957 13.5709 12.9994ZM6.00091 5.40942C5.19362 6.21919 4.7403 7.31599 4.7403 8.45942C4.7403 9.60286 5.19362 10.6997 6.00091 11.5094C6.60067 12.1102 7.36449 12.5205 8.19656 12.6888C9.02862 12.8571 9.89186 12.776 10.678 12.4556C11.4641 12.1351 12.1381 11.5897 12.6154 10.8877C13.0927 10.1856 13.352 9.35829 13.3609 8.50942C13.3654 7.94263 13.2562 7.38068 13.0398 6.85681C12.8234 6.33294 12.5041 5.85778 12.1009 5.45942C11.7046 5.054 11.232 4.73096 10.7103 4.50889C10.1887 4.28682 9.62825 4.1701 9.06131 4.16545C8.49437 4.1608 7.93211 4.26832 7.40688 4.48181C6.88165 4.6953 6.40383 5.01055 6.00091 5.40942ZM10.6909 10.0894C10.3119 10.4742 9.81112 10.7153 9.27403 10.7717C8.73695 10.828 8.19697 10.6961 7.74641 10.3983C7.29586 10.1006 6.9627 9.65566 6.80391 9.13951C6.64512 8.62335 6.67056 8.06806 6.87586 7.56858C7.08117 7.06909 7.45361 6.65644 7.92949 6.40116C8.40538 6.14588 8.95516 6.06383 9.48484 6.16904C10.0145 6.27425 10.4912 6.56018 10.8334 6.97795C11.1756 7.39573 11.3621 7.91939 11.3609 8.45942C11.3464 9.07669 11.0874 9.66295 10.6409 10.0894H10.6909Z" fill="black"/>
</svg>
