<svg width="30" height="31" viewBox="0 0 30 31" fill="none" xmlns="http://www.w3.org/2000/svg">
<path d="M15.0001 3C13.3586 3 11.7331 3.32332 10.2165 3.95151C8.69996 4.57969 7.32197 5.50043 6.16124 6.66117C3.81704 9.00537 2.50008 12.1848 2.50008 15.5C2.48915 18.3864 3.48857 21.1857 5.32508 23.4125L2.82508 25.9125C2.65163 26.0883 2.53413 26.3115 2.48742 26.554C2.4407 26.7965 2.46685 27.0474 2.56258 27.275C2.6664 27.4999 2.83471 27.6889 3.04614 27.818C3.25756 27.9471 3.50258 28.0104 3.75008 28H15.0001C18.3153 28 21.4947 26.683 23.8389 24.3388C26.1831 21.9946 27.5001 18.8152 27.5001 15.5C27.5001 12.1848 26.1831 9.00537 23.8389 6.66117C21.4947 4.31696 18.3153 3 15.0001 3ZM15.0001 25.5H6.76258L7.92508 24.3375C8.15789 24.1033 8.28857 23.7865 8.28857 23.4562C8.28857 23.126 8.15789 22.8092 7.92508 22.575C6.28831 20.9401 5.26904 18.7882 5.04094 16.486C4.81284 14.1838 5.39 11.8738 6.67411 9.9494C7.95822 8.02505 9.86982 6.60545 12.0832 5.93247C14.2966 5.25948 16.6749 5.37476 18.8128 6.25864C20.9508 7.14253 22.7161 8.74034 23.8081 10.7799C24.9001 12.8194 25.2512 15.1744 24.8015 17.4438C24.3518 19.7131 23.1292 21.7563 21.342 23.2253C19.5548 24.6943 17.3135 25.4982 15.0001 25.5Z" fill="black"/>
</svg>
