<svg width="30" height="31" viewBox="0 0 30 31" fill="none" xmlns="http://www.w3.org/2000/svg">
<path d="M15 16.7506C14.6685 16.7506 14.3505 16.8823 14.1161 17.1167C13.8817 17.3512 13.75 17.6691 13.75 18.0006V21.7506C13.75 22.0822 13.8817 22.4001 14.1161 22.6345C14.3505 22.8689 14.6685 23.0006 15 23.0006C15.3315 23.0006 15.6495 22.8689 15.8839 22.6345C16.1183 22.4001 16.25 22.0822 16.25 21.7506V18.0006C16.25 17.6691 16.1183 17.3512 15.8839 17.1167C15.6495 16.8823 15.3315 16.7506 15 16.7506ZM21.25 11.7506H11.25V9.25063C11.2482 8.50837 11.4667 7.78226 11.8778 7.16426C12.289 6.54627 12.8743 6.06419 13.5596 5.77908C14.2449 5.49398 14.9995 5.41867 15.7276 5.56269C16.4558 5.70671 17.1248 6.06359 17.65 6.58813C18.1199 7.06822 18.4561 7.66291 18.625 8.31313C18.666 8.47236 18.738 8.62195 18.8369 8.75335C18.9357 8.88475 19.0595 8.9954 19.2011 9.07897C19.3427 9.16254 19.4994 9.21741 19.6622 9.24043C19.825 9.26344 19.9908 9.25417 20.15 9.21313C20.3092 9.17209 20.4588 9.1001 20.5902 9.00125C20.7216 8.9024 20.8323 8.77864 20.9158 8.63703C20.9994 8.49542 21.0543 8.33874 21.0773 8.17592C21.1003 8.01311 21.091 7.84736 21.05 7.68813C20.7652 6.60663 20.2004 5.6193 19.4125 4.82563C18.5377 3.95359 17.4242 3.3603 16.2124 3.12069C15.0007 2.88107 13.7452 3.00587 12.6043 3.47933C11.4635 3.95278 10.4885 4.75367 9.80251 5.78085C9.11651 6.80803 8.75026 8.01544 8.75 9.25063V11.7506C7.75544 11.7506 6.80161 12.1457 6.09835 12.849C5.39509 13.5522 5 14.5061 5 15.5006V24.2506C5 25.2452 5.39509 26.199 6.09835 26.9023C6.80161 27.6055 7.75544 28.0006 8.75 28.0006H21.25C22.2446 28.0006 23.1984 27.6055 23.9017 26.9023C24.6049 26.199 25 25.2452 25 24.2506V15.5006C25 14.5061 24.6049 13.5522 23.9017 12.849C23.1984 12.1457 22.2446 11.7506 21.25 11.7506ZM22.5 24.2506C22.5 24.5822 22.3683 24.9001 22.1339 25.1345C21.8995 25.3689 21.5815 25.5006 21.25 25.5006H8.75C8.41848 25.5006 8.10054 25.3689 7.86612 25.1345C7.6317 24.9001 7.5 24.5822 7.5 24.2506V15.5006C7.5 15.1691 7.6317 14.8512 7.86612 14.6167C8.10054 14.3823 8.41848 14.2506 8.75 14.2506H21.25C21.5815 14.2506 21.8995 14.3823 22.1339 14.6167C22.3683 14.8512 22.5 15.1691 22.5 15.5006V24.2506Z" fill="black"/>
</svg>
