<svg width="20" height="25" viewBox="0 0 20 25" fill="none" xmlns="http://www.w3.org/2000/svg">
<path d="M10 10.9996C10.4945 10.9996 10.9778 10.853 11.3889 10.5783C11.8 10.3036 12.1205 9.91315 12.3097 9.45633C12.4989 8.99951 12.5484 8.49685 12.452 8.0119C12.3555 7.52694 12.1174 7.08149 11.7678 6.73186C11.4181 6.38222 10.9727 6.14412 10.4877 6.04766C10.0028 5.9512 9.50011 6.0007 9.04329 6.18992C8.58648 6.37914 8.19603 6.69957 7.92133 7.1107C7.64662 7.52182 7.5 8.00517 7.5 8.49962C7.5 9.16266 7.76339 9.79855 8.23223 10.2674C8.70107 10.7362 9.33696 10.9996 10 10.9996ZM9.1125 19.6371C9.2287 19.7543 9.36695 19.8473 9.51928 19.9107C9.6716 19.9742 9.83498 20.0069 10 20.0069C10.165 20.0069 10.3284 19.9742 10.4807 19.9107C10.633 19.8473 10.7713 19.7543 10.8875 19.6371L16 14.5121C17.1874 13.3253 17.9962 11.813 18.3241 10.1664C18.6519 8.51991 18.4841 6.81313 17.8419 5.26198C17.1996 3.71084 16.1117 2.38501 14.7159 1.45219C13.32 0.51938 11.6789 0.0214844 10 0.0214844C8.32114 0.0214844 6.68 0.51938 5.28414 1.45219C3.88828 2.38501 2.80042 3.71084 2.15815 5.26198C1.51588 6.81313 1.34806 8.51991 1.67591 10.1664C2.00376 11.813 2.81256 13.3253 4 14.5121L9.1125 19.6371ZM4.0375 7.92462C4.12291 7.03339 4.40627 6.17249 4.86691 5.40477C5.32754 4.63704 5.95381 3.98188 6.7 3.48712C7.68025 2.84349 8.82733 2.50057 10 2.50057C11.1727 2.50057 12.3197 2.84349 13.3 3.48712C14.0412 3.98018 14.6639 4.63137 15.1234 5.39385C15.5829 6.15633 15.8677 7.01116 15.9573 7.89686C16.047 8.78255 15.9392 9.67711 15.6419 10.5162C15.3445 11.3553 14.8649 12.118 14.2375 12.7496L10 16.9871L5.7625 12.7496C5.1344 12.1242 4.65366 11.3665 4.35526 10.5319C4.05685 9.69721 3.9483 8.80652 4.0375 7.92462ZM18.75 22.4996H1.25C0.918479 22.4996 0.600537 22.6313 0.366117 22.8657C0.131696 23.1002 0 23.4181 0 23.7496C0 24.0811 0.131696 24.3991 0.366117 24.6335C0.600537 24.8679 0.918479 24.9996 1.25 24.9996H18.75C19.0815 24.9996 19.3995 24.8679 19.6339 24.6335C19.8683 24.3991 20 24.0811 20 23.7496C20 23.4181 19.8683 23.1002 19.6339 22.8657C19.3995 22.6313 19.0815 22.4996 18.75 22.4996Z" fill="black"/>
</svg>
