<svg width="24" height="25" viewBox="0 0 24 25" fill="none" xmlns="http://www.w3.org/2000/svg">
<path d="M10.2908 4.35923L1.82075 18.4992C1.64612 18.8017 1.55372 19.1445 1.55274 19.4937C1.55176 19.843 1.64224 20.1864 1.81518 20.4898C1.98812 20.7931 2.23748 21.046 2.53846 21.2231C2.83944 21.4002 3.18155 21.4954 3.53075 21.4992H20.4708C20.82 21.4954 21.1621 21.4002 21.463 21.2231C21.764 21.046 22.0134 20.7931 22.1863 20.4898C22.3593 20.1864 22.4497 19.843 22.4488 19.4937C22.4478 19.1445 22.3554 18.8017 22.1808 18.4992L13.7108 4.35923C13.5325 4.06533 13.2815 3.82235 12.9819 3.65371C12.6824 3.48508 12.3445 3.39648 12.0008 3.39648C11.657 3.39648 11.3191 3.48508 11.0196 3.65371C10.72 3.82235 10.469 4.06533 10.2908 4.35923V4.35923Z" stroke="white" stroke-width="2" stroke-linecap="round" stroke-linejoin="round"/>
<path d="M12 9.5V13.5" stroke="white" stroke-width="2" stroke-linecap="round" stroke-linejoin="round"/>
<path d="M12 17.5H12.01" stroke="white" stroke-width="2" stroke-linecap="round" stroke-linejoin="round"/>
</svg>
